<svg xmlns="http://www.w3.org/2000/svg" viewBox="0 0 512 512">
  <defs>
    <linearGradient id="bg" x1="0%" y1="0%" x2="100%" y2="100%">
      <stop offset="0%" style="stop-color:#1a3a2a"/>
      <stop offset="100%" style="stop-color:#2d6040"/>
    </linearGradient>
  </defs>
  <circle cx="256" cy="256" r="256" fill="url(#bg)"/>
  <path d="M256 420 Q256 300 256 180" stroke="#86efac" stroke-width="14" fill="none" stroke-linecap="round"/>
  <path d="M256 290 Q175 225 145 145 Q225 175 256 290" fill="#4ade80"/>
  <path d="M256 290 Q337 225 367 145 Q287 175 256 290" fill="#4ade80"/>
  <path d="M256 240 Q190 190 170 115 Q240 148 256 240" fill="#22c55e"/>
  <path d="M256 240 Q322 190 342 115 Q272 148 256 240" fill="#22c55e"/>
  <path d="M256 188 Q218 150 212 90 Q255 120 256 188" fill="#86efac"/>
  <path d="M256 188 Q294 150 300 90 Q257 120 256 188" fill="#86efac"/>
  <ellipse cx="256" cy="435" rx="38" ry="18" fill="#4ade80" opacity="0.5"/>
  <circle cx="256" cy="84" r="12" fill="#bbf7d0"/>
</svg>